<svg xmlns="http://www.w3.org/2000/svg" width="745" height="645" fill="none"><style>@keyframes kf_Group_1000005481_transform_0{0%{animation-timing-function:cubic-bezier(.5,0,.5,1);transform:translateX(230.34px) translateY(124.647px) translate(83.588px,28.249px) rotate(0rad) translate(-83.588px,-28.249px) rotate(.326rad) scaleX(1) scaleY(1) skewX(0rad)}50.28%{animation-timing-function:cubic-bezier(.5,0,.5,1);transform:translateX(230.34px) translateY(124.647px) translate(83.588px,28.249px) rotate(-.506rad) translate(-83.588px,-28.249px) rotate(.326rad) scaleX(1) scaleY(1) skewX(0rad)}to{transform:translateX(230.34px) translateY(124.647px) translate(83.588px,28.249px) rotate(0rad) translate(-83.588px,-28.249px) rotate(.326rad) scaleX(1) scaleY(1) skewX(0rad)}}</style><g id="construction_2" clip-path="url(#clip0_1453_12491)"><path id="construction_2_bg_0" fill="#FEFCF6" d="M0 0h745v645H0z"/><g id="Group" transform="translate(35 31)"><path id="Vector" stroke="#2B2B2B" stroke-linecap="round" stroke-linejoin="round" stroke-width="2.5" d="M0 0h651l-11 31q-5 7-15 7H26q-10 0-15-7z" transform="translate(0 542)"/><path id="Vector_2" stroke="#2B2B2B" stroke-linecap="round" stroke-linejoin="round" stroke-width="2.5" d="M4 0h200q4 0 4 4t-4 4H4Q0 8 0 4t4-4" transform="translate(221 551)"/><path id="Vector_3" stroke="#2B2B2B" stroke-linecap="round" stroke-linejoin="round" stroke-width="2.5" d="M580 0H16C7.163 0 0 7.163 0 16v330c0 8.837 7.163 16 16 16h564c8.837 0 16-7.163 16-16V16c0-8.837-7.163-16-16-16" transform="translate(25 180)"/><path id="Vector_4" stroke="#2B2B2B" stroke-linecap="round" stroke-linejoin="round" stroke-width="2.5" d="M558 0H4a4 4 0 0 0-4 4v318a4 4 0 0 0 4 4h554a4 4 0 0 0 4-4V4a4 4 0 0 0-4-4" transform="translate(42 198)"/><path id="Vector_5" fill="#2B2B2B" stroke="#2B2B2B" stroke-linecap="round" stroke-linejoin="round" stroke-width="2.5" d="M3 6a3 3 0 1 0 0-6 3 3 0 0 0 0 6" transform="translate(72 212)"/><path id="Vector_6" fill="#2B2B2B" stroke="#2B2B2B" stroke-linecap="round" stroke-linejoin="round" stroke-width="2.5" d="M3 6a3 3 0 1 0 0-6 3 3 0 0 0 0 6" transform="translate(88 212)"/><path id="Vector_7" fill="#2B2B2B" stroke="#2B2B2B" stroke-linecap="round" stroke-linejoin="round" stroke-width="2.5" d="M3 6a3 3 0 1 0 0-6 3 3 0 0 0 0 6" transform="translate(104 212)"/><path id="Vector_8" stroke="#2B2B2B" stroke-linecap="round" stroke-linejoin="round" stroke-width="2.5" d="M0 0h562" transform="translate(42 230)"/><path id="Vector_9" stroke="#2B2B2B" stroke-linecap="round" stroke-linejoin="round" stroke-width="2.5" d="M23 0 0 27l23 27" transform="translate(110 270)"/><path id="Vector_10" stroke="#2B2B2B" stroke-linecap="round" stroke-linejoin="round" stroke-width="2.5" d="m0 0 23 27L0 54" transform="translate(203 270)"/><path id="Vector_11" stroke="#2B2B2B" stroke-linecap="round" stroke-linejoin="round" stroke-width="2.5" d="M14 0 0 68" transform="translate(161 263)"/><path id="Vector_12" stroke="#2B2B2B" stroke-linecap="round" stroke-linejoin="round" stroke-width="2.5" d="M105 0H0v90h105z" transform="translate(105 350)"/><path id="Vector_13" stroke="#2B2B2B" stroke-linecap="round" stroke-linejoin="round" stroke-width="2.5" d="M0 0h140" transform="translate(242 370)"/><path id="Vector_14" stroke="#2B2B2B" stroke-linecap="round" stroke-linejoin="round" stroke-width="2.5" d="M0 0h180" transform="translate(242 394)"/><path id="Vector_15" stroke="#2B2B2B" stroke-linecap="round" stroke-linejoin="round" stroke-width="2.5" d="M0 0h160" transform="translate(242 418)"/><path id="Vector_16" stroke="#2B2B2B" stroke-linecap="round" stroke-linejoin="round" stroke-width="2.5" d="M337 0H0v35h337z" transform="translate(105 461)"/><path id="Vector_17" stroke="#2B2B2B" stroke-linecap="round" stroke-linejoin="round" stroke-width="2.5" d="M34 0H0v425h34z" transform="translate(483 93)"/><g id="Group_2" transform="translate(483 113)"><path id="Vector_18" stroke="#2B2B2B" stroke-linecap="round" stroke-linejoin="round" stroke-width="2.5" d="m0 0 34 15"/><path id="Vector_19" stroke="#2B2B2B" stroke-linecap="round" stroke-linejoin="round" stroke-width="2.5" d="m0 0 34 15" transform="translate(0 15)"/><path id="Vector_20" stroke="#2B2B2B" stroke-linecap="round" stroke-linejoin="round" stroke-width="2.5" d="m0 0 34 15" transform="translate(0 30)"/><path id="Vector_21" stroke="#2B2B2B" stroke-linecap="round" stroke-linejoin="round" stroke-width="2.5" d="m0 0 34 15" transform="translate(0 45)"/><path id="Vector_22" stroke="#2B2B2B" stroke-linecap="round" stroke-linejoin="round" stroke-width="2.5" d="m0 0 34 15" transform="translate(0 60)"/><path id="Vector_23" stroke="#2B2B2B" stroke-linecap="round" stroke-linejoin="round" stroke-width="2.5" d="m0 0 34 15" transform="translate(0 75)"/><path id="Vector_24" stroke="#2B2B2B" stroke-linecap="round" stroke-linejoin="round" stroke-width="2.5" d="m0 0 34 15" transform="translate(0 90)"/><path id="Vector_25" stroke="#2B2B2B" stroke-linecap="round" stroke-linejoin="round" stroke-width="2.5" d="m0 0 34 15" transform="translate(0 105)"/><path id="Vector_26" stroke="#2B2B2B" stroke-linecap="round" stroke-linejoin="round" stroke-width="2.5" d="m0 0 34 15" transform="translate(0 120)"/><path id="Vector_27" stroke="#2B2B2B" stroke-linecap="round" stroke-linejoin="round" stroke-width="2.5" d="m0 0 34 15" transform="translate(0 135)"/><path id="Vector_28" stroke="#2B2B2B" stroke-linecap="round" stroke-linejoin="round" stroke-width="2.5" d="m0 0 34 15" transform="translate(0 150)"/><path id="Vector_29" stroke="#2B2B2B" stroke-linecap="round" stroke-linejoin="round" stroke-width="2.5" d="m0 0 34 15" transform="translate(0 165)"/><path id="Vector_30" stroke="#2B2B2B" stroke-linecap="round" stroke-linejoin="round" stroke-width="2.5" d="m0 0 34 15" transform="translate(0 180)"/><path id="Vector_31" stroke="#2B2B2B" stroke-linecap="round" stroke-linejoin="round" stroke-width="2.5" d="m0 0 34 15" transform="translate(0 195)"/><path id="Vector_32" stroke="#2B2B2B" stroke-linecap="round" stroke-linejoin="round" stroke-width="2.5" d="m0 0 34 15" transform="translate(0 210)"/><path id="Vector_33" stroke="#2B2B2B" stroke-linecap="round" stroke-linejoin="round" stroke-width="2.5" d="m0 0 34 15" transform="translate(0 225)"/><path id="Vector_34" stroke="#2B2B2B" stroke-linecap="round" stroke-linejoin="round" stroke-width="2.5" d="m0 0 34 15" transform="translate(0 240)"/><path id="Vector_35" stroke="#2B2B2B" stroke-linecap="round" stroke-linejoin="round" stroke-width="2.5" d="m0 0 34 15" transform="translate(0 255)"/><path id="Vector_36" stroke="#2B2B2B" stroke-linecap="round" stroke-linejoin="round" stroke-width="2.5" d="m0 0 34 15" transform="translate(0 270)"/><path id="Vector_37" stroke="#2B2B2B" stroke-linecap="round" stroke-linejoin="round" stroke-width="2.5" d="m0 0 34 15" transform="translate(0 285)"/><path id="Vector_38" stroke="#2B2B2B" stroke-linecap="round" stroke-linejoin="round" stroke-width="2.5" d="m0 0 34 15" transform="translate(0 300)"/><path id="Vector_39" stroke="#2B2B2B" stroke-linecap="round" stroke-linejoin="round" stroke-width="2.5" d="m0 0 34 15" transform="translate(0 315)"/><path id="Vector_40" stroke="#2B2B2B" stroke-linecap="round" stroke-linejoin="round" stroke-width="2.5" d="m0 0 34 15" transform="translate(0 330)"/><path id="Vector_41" stroke="#2B2B2B" stroke-linecap="round" stroke-linejoin="round" stroke-width="2.5" d="m0 0 34 15" transform="translate(0 345)"/><path id="Vector_42" stroke="#2B2B2B" stroke-linecap="round" stroke-linejoin="round" stroke-width="2.5" d="m0 0 34 15" transform="translate(0 360)"/><path id="Vector_43" stroke="#2B2B2B" stroke-linecap="round" stroke-linejoin="round" stroke-width="2.5" d="m0 0 34 15" transform="translate(0 375)"/><path id="Vector_44" stroke="#2B2B2B" stroke-linecap="round" stroke-linejoin="round" stroke-width="2.5" d="m0 0 34 15" transform="translate(0 390)"/></g><path id="Vector_45" stroke="#2B2B2B" stroke-linecap="round" stroke-linejoin="round" stroke-width="2.5" d="M0 0h90l-5 14H5z" transform="translate(455 518)"/><path id="Vector_46" stroke="#2B2B2B" stroke-linecap="round" stroke-linejoin="round" stroke-width="2.5" d="M0 0h110l-5 11H5z" transform="translate(445 532)"/><path id="Vector_47" stroke="#2B2B2B" stroke-linecap="round" stroke-linejoin="round" stroke-width="2.5" d="M0 93 17 0l17 93z" transform="translate(483)"/><path id="Vector_48" stroke="#2B2B2B" stroke-linecap="round" stroke-linejoin="round" stroke-width="2.5" d="M0 0h163v26H0z" transform="translate(517 76)"/><path id="Vector_49" stroke="#2B2B2B" stroke-linecap="round" stroke-linejoin="round" stroke-width="2.5" d="m0 0 16 26" transform="translate(517 76)"/><path id="Vector_50" stroke="#2B2B2B" stroke-linecap="round" stroke-linejoin="round" stroke-width="2.5" d="m0 0 16 26" transform="translate(533 76)"/><path id="Vector_51" stroke="#2B2B2B" stroke-linecap="round" stroke-linejoin="round" stroke-width="2.5" d="m0 0 16 26" transform="translate(549 76)"/><path id="Vector_52" stroke="#2B2B2B" stroke-linecap="round" stroke-linejoin="round" stroke-width="2.5" d="m0 0 16 26" transform="translate(565 76)"/><path id="Vector_53" stroke="#2B2B2B" stroke-linecap="round" stroke-linejoin="round" stroke-width="2.5" d="m0 0 16 26" transform="translate(581 76)"/><path id="Vector_54" stroke="#2B2B2B" stroke-linecap="round" stroke-linejoin="round" stroke-width="2.5" d="m0 0 16 26" transform="translate(597 76)"/><path id="Vector_55" stroke="#2B2B2B" stroke-linecap="round" stroke-linejoin="round" stroke-width="2.5" d="m0 0 16 26" transform="translate(613 76)"/><path id="Vector_56" stroke="#2B2B2B" stroke-linecap="round" stroke-linejoin="round" stroke-width="2.5" d="m0 0 16 26" transform="translate(629 76)"/><path id="Vector_57" stroke="#2B2B2B" stroke-linecap="round" stroke-linejoin="round" stroke-width="2.5" d="m0 0 16 26" transform="translate(645 76)"/><path id="Vector_58" stroke="#2B2B2B" stroke-linecap="round" stroke-linejoin="round" stroke-width="2.5" d="m0 0 16 26" transform="translate(661 76)"/><path id="Vector_59" stroke="#2B2B2B" stroke-linecap="round" stroke-linejoin="round" stroke-width="2.5" d="M0 0h252v26H0z" transform="translate(265 76)"/><path id="Vector_60" stroke="#2B2B2B" stroke-linecap="round" stroke-linejoin="round" stroke-width="2.5" d="m0 0 16 26" transform="translate(265 76)"/><path id="Vector_61" stroke="#2B2B2B" stroke-linecap="round" stroke-linejoin="round" stroke-width="2.5" d="m0 0 16 26" transform="translate(281 76)"/><path id="Vector_62" stroke="#2B2B2B" stroke-linecap="round" stroke-linejoin="round" stroke-width="2.5" d="m0 0 16 26" transform="translate(297 76)"/><path id="Vector_63" stroke="#2B2B2B" stroke-linecap="round" stroke-linejoin="round" stroke-width="2.5" d="m0 0 16 26" transform="translate(313 76)"/><path id="Vector_64" stroke="#2B2B2B" stroke-linecap="round" stroke-linejoin="round" stroke-width="2.5" d="m0 0 16 26" transform="translate(329 76)"/><path id="Vector_65" stroke="#2B2B2B" stroke-linecap="round" stroke-linejoin="round" stroke-width="2.5" d="m0 0 16 26" transform="translate(345 76)"/><path id="Vector_66" stroke="#2B2B2B" stroke-linecap="round" stroke-linejoin="round" stroke-width="2.5" d="m0 0 16 26" transform="translate(361 76)"/><path id="Vector_67" stroke="#2B2B2B" stroke-linecap="round" stroke-linejoin="round" stroke-width="2.5" d="m0 0 16 26" transform="translate(377 76)"/><path id="Vector_68" stroke="#2B2B2B" stroke-linecap="round" stroke-linejoin="round" stroke-width="2.5" d="m0 0 16 26" transform="translate(393 76)"/><path id="Vector_69" stroke="#2B2B2B" stroke-linecap="round" stroke-linejoin="round" stroke-width="2.5" d="m0 0 16 26" transform="translate(409 76)"/><path id="Vector_70" stroke="#2B2B2B" stroke-linecap="round" stroke-linejoin="round" stroke-width="2.5" d="m0 0 16 26" transform="translate(425 76)"/><path id="Vector_71" stroke="#2B2B2B" stroke-linecap="round" stroke-linejoin="round" stroke-width="2.5" d="m0 0 16 26" transform="translate(441 76)"/><path id="Vector_72" stroke="#2B2B2B" stroke-linecap="round" stroke-linejoin="round" stroke-width="2.5" d="m0 0 16 26" transform="translate(457 76)"/><path id="Vector_73" stroke="#2B2B2B" stroke-linecap="round" stroke-linejoin="round" stroke-width="2.5" d="m0 0 16 26" transform="translate(473 76)"/><path id="Vector_74" stroke="#2B2B2B" stroke-linecap="round" stroke-linejoin="round" stroke-width="2.5" d="m0 0 16 26" transform="translate(489 76)"/><path id="Vector_75" stroke="#2B2B2B" stroke-linecap="round" stroke-linejoin="round" stroke-width="2.5" d="m0 0 12 17" transform="translate(505 76)"/><path id="Vector_76" stroke="#2B2B2B" stroke-linecap="round" stroke-linejoin="round" stroke-width="2.5" d="M235 0 0 76" transform="translate(265)"/><path id="Vector_77" stroke="#2B2B2B" stroke-linecap="round" stroke-linejoin="round" stroke-width="2.5" d="m0 0 180 76" transform="translate(500)"/><path id="Vector_78" stroke="#2B2B2B" stroke-linecap="round" stroke-linejoin="round" stroke-width="2.5" d="M0 0v76" transform="translate(500)"/><path id="Vector_79" stroke="#2B2B2B" stroke-linecap="round" stroke-linejoin="round" stroke-width="2.5" d="M6 12A6 6 0 1 0 6 0a6 6 0 0 0 0 12" transform="translate(641 64)"/><path id="Vector_80" stroke="#2B2B2B" stroke-linecap="round" stroke-linejoin="round" stroke-width="2.5" d="M0 0v18q0 10 10 10h12q10 0 10-10V0" transform="translate(295 102)"/><path id="Vector_81" stroke="#2B2B2B" stroke-linecap="round" stroke-linejoin="round" stroke-width="2.5" d="M0 0v15" transform="translate(311 130)"/><g style="transform-origin:0 0;animation:kf_Group_1000005481_transform_0 4s linear infinite" transform="rotate(18.673 -263.9 762.822)"><path id="Vector_82" stroke="#2B2B2B" stroke-linecap="round" stroke-linejoin="round" stroke-width="2.5" d="M5 10A5 5 0 1 0 5 0a5 5 0 0 0 0 10" transform="translate(80.322)"/><path id="Vector_83" stroke="#2B2B2B" stroke-linecap="round" stroke-linejoin="round" stroke-width="2.5" d="M58 0 0 101" transform="translate(21 9.053)"/><path id="Vector_84" stroke="#2B2B2B" stroke-linecap="round" stroke-linejoin="round" stroke-width="2.5" d="m0 0 65 93" transform="translate(91 9.053)"/><path id="Vector_85" fill="#322F2F" stroke="#2B2B2B" stroke-linecap="round" stroke-linejoin="round" stroke-width="2.5" d="M168 0H4a4 4 0 0 0-4 4v62a4 4 0 0 0 4 4h164a4 4 0 0 0 4-4V4a4 4 0 0 0-4-4" transform="rotate(-4 1604.36 56.023)"/><path id="HOME" fill="#FEFCF6" d="M2.99 31V7.727h2.818v10.364h12.41V7.727h2.817V31h-2.818V20.59H5.808V31zm43.324-11.636q0 3.681-1.33 6.363t-3.647 4.137-5.296 1.454-5.295-1.454-3.648-4.137q-1.33-2.682-1.33-6.363T27.099 13t3.648-4.136 5.295-1.455 5.296 1.455T44.984 13q1.33 2.683 1.33 6.364m-2.727 0q0-3.023-1.012-5.103-1-2.079-2.716-3.147-1.704-1.07-3.818-1.069-2.113 0-3.83 1.069-1.704 1.068-2.715 3.147-1 2.08-1 5.103t1 5.102q1.011 2.079 2.716 3.148 1.716 1.068 3.83 1.068 2.112 0 3.817-1.068 1.716-1.07 2.716-3.148 1.011-2.08 1.012-5.102m7.466-11.637h3.363l7.91 19.319h.272l7.91-19.319h3.363V31h-2.637V13.318h-.227L63.734 31H61.19l-7.273-17.682h-.227V31h-2.636zM79.52 31V7.727h14.046v2.5H82.34v7.864h10.5v2.5h-10.5V28.5h11.409V31z" transform="rotate(-2.083 3444.072 -1006.37)"/></g></g><path id="Ellipse_28" fill="#2B2B2B" d="M.563 4.5H-.562c-.063.397-.076.81-.035 1.223.182 2.375 2.428 4.603 5.097 4.673 1.541.08 3.14-.537 4.243-1.653C9.859 7.64 10.476 6.04 10.396 4.5c-.07-2.67-2.298-4.915-4.673-5.097A4.8 4.8 0 0 0 4.5-.563V.563q.466.094.879.28c1.568.704 2.364 2.281 2.225 3.657a3.4 3.4 0 0 1-.983 2.121 3.4 3.4 0 0 1-2.121.983C3.124 7.742 1.547 6.947.844 5.38a4 4 0 0 1-.281-.88" transform="translate(340 176)"/></g><defs><clipPath id="clip0_1453_12491"><path fill="#fff" d="M0 0h745v645H0z"/></clipPath></defs></svg>